<?xml version="1.0" standalone="no"?>
<!DOCTYPE svg PUBLIC "-//W3C//DTD SVG 20010904//EN"
 "http://www.w3.org/TR/2001/REC-SVG-20010904/DTD/svg10.dtd">
<svg version="1.0" xmlns="http://www.w3.org/2000/svg"
 width="515.000000pt" height="279.000000pt" viewBox="0 0 515.000000 279.000000"
 preserveAspectRatio="xMidYMid meet">

<g transform="translate(0.000000,279.000000) scale(0.100000,-0.100000)"
fill="#FFFFFF" stroke="none">
<path d="M4820 2663 c-36 -2 -69 -8 -74 -14 -6 -5 -36 -9 -68 -9 -68 0 -84
-17 -49 -54 21 -22 21 -30 21 -344 0 -260 -3 -322 -13 -322 -7 0 -33 44 -57
98 -62 140 -97 217 -136 298 -19 40 -34 74 -34 77 0 2 -20 48 -45 101 l-45 96
-39 0 c-43 0 -277 -28 -300 -36 -11 -3 -6 -13 17 -37 l32 -33 0 -611 c0 -606
0 -610 -21 -637 -12 -15 -19 -30 -15 -33 3 -3 68 -1 143 6 119 10 153 13 207
20 6 0 -2 14 -17 29 l-27 28 2 312 c2 193 7 313 13 315 12 3 78 -132 175 -358
5 -11 38 -82 74 -157 58 -122 69 -138 90 -138 14 0 27 4 30 9 3 5 62 12 130
16 140 8 161 17 121 55 l-25 23 0 615 0 615 25 33 c14 18 25 35 25 38 0 3 -17
5 -37 4 -21 -1 -67 -3 -103 -5z"/>
<path d="M3605 2510 c-16 -4 -50 -8 -75 -9 -25 -1 -52 -6 -60 -11 -12 -8 -11
-13 8 -33 l22 -23 0 -623 c0 -611 0 -623 -20 -649 -11 -14 -17 -29 -13 -33 11
-10 346 34 350 47 2 5 -8 21 -22 34 l-25 23 0 615 c0 550 2 617 16 633 9 10
13 23 9 28 -7 12 -143 13 -190 1z"/>
<path d="M3150 2463 c-36 -2 -69 -8 -74 -14 -6 -5 -34 -9 -62 -9 -62 0 -73
-11 -45 -46 20 -26 21 -38 21 -404 l0 -378 -43 -108 c-24 -59 -49 -110 -55
-112 -6 -2 -21 18 -33 45 -12 26 -32 72 -45 101 -22 47 -24 66 -24 197 l0 144
30 34 c17 19 30 37 30 41 0 10 -118 7 -125 -4 -3 -5 -32 -10 -63 -11 -73 -1
-169 -13 -178 -22 -4 -4 2 -17 14 -30 21 -22 22 -33 22 -193 0 -130 -4 -176
-15 -198 -8 -15 -15 -33 -15 -40 0 -6 -6 -23 -14 -37 -7 -14 -16 -38 -20 -53
-4 -18 -12 -26 -23 -24 -19 4 -20 6 -73 126 l-40 92 0 357 0 356 26 34 c42 55
28 59 -153 38 -87 -9 -162 -21 -167 -26 -6 -5 1 -20 17 -37 l26 -27 3 -410 3
-410 32 -68 c18 -38 33 -71 33 -74 0 -3 13 -33 29 -67 16 -33 36 -79 46 -101
9 -22 24 -55 32 -73 13 -25 14 -35 5 -44 -23 -23 -12 -30 36 -24 26 4 103 12
171 19 l124 12 32 73 c17 40 37 78 42 83 8 8 21 -10 45 -58 l34 -68 59 -3 c33
-2 68 1 80 7 11 5 63 12 115 15 99 6 121 14 95 36 -8 7 -15 17 -15 22 0 5 41
111 90 235 l90 225 0 407 0 406 31 38 30 37 -48 -2 c-26 -1 -77 -3 -113 -5z"/>
<path d="M1410 2250 c-8 -5 -43 -10 -77 -10 -34 0 -64 -4 -67 -9 -3 -4 -54
-11 -113 -15 -59 -4 -109 -9 -112 -12 -3 -2 10 -19 27 -37 l32 -33 0 -611 c0
-539 -2 -612 -15 -623 -9 -7 -15 -23 -13 -34 3 -19 9 -21 68 -19 36 1 108 6
160 12 274 32 349 61 458 175 56 59 71 82 90 141 23 70 23 77 20 465 l-3 395
-29 53 c-38 67 -83 107 -163 144 -54 24 -75 28 -155 28 -51 0 -100 -5 -108
-10z m172 -287 l28 -27 0 -344 c0 -310 -2 -347 -17 -374 -30 -50 -73 -69 -160
-71 l-78 -2 -3 409 c-1 293 1 413 9 422 8 10 38 14 102 14 85 0 93 -2 119 -27z"/>
<path d="M715 2170 c-3 -5 -31 -10 -62 -10 -31 0 -72 -4 -92 -9 -20 -6 -106
-17 -191 -26 -175 -19 -282 -34 -289 -41 -3 -2 10 -18 27 -35 l32 -31 0 -857
0 -856 28 -56 c31 -63 88 -136 98 -126 4 3 1 26 -6 49 -16 53 -25 255 -12 271
5 7 13 33 16 59 7 46 51 147 88 200 10 15 36 32 56 39 92 27 108 30 424 66
l47 5 3 146 c2 81 1 151 -1 155 -2 5 -17 -5 -35 -21 -26 -26 -41 -31 -96 -36
-36 -3 -122 -11 -191 -17 -70 -7 -134 -9 -143 -6 -14 5 -16 27 -16 142 0 101
3 135 13 136 6 0 46 4 87 9 41 5 118 14 170 20 52 7 101 16 108 22 9 8 12 41
10 122 l-3 111 -55 3 c-30 1 -98 -2 -150 -8 -52 -6 -113 -12 -135 -13 l-40 -2
-3 140 c-3 161 -1 165 79 165 26 0 59 4 73 10 14 5 83 12 153 16 112 6 130 5
142 -10 7 -9 18 -16 22 -16 6 0 8 64 7 148 l-3 147 -77 3 c-45 2 -79 -1 -83
-8z"/>
</g>
</svg>
